<?xml version="1.0" standalone="no"?><!DOCTYPE svg PUBLIC "-//W3C//DTD SVG 1.1//EN" "http://www.w3.org/Graphics/SVG/1.1/DTD/svg11.dtd"><svg t="1607783588106" class="icon" viewBox="0 0 1062 1024" version="1.1" xmlns="http://www.w3.org/2000/svg" p-id="3272" xmlns:xlink="http://www.w3.org/1999/xlink" width="207.421875" height="200"><defs><style type="text/css"></style></defs><path d="M949.576453 1004.679245H107.172226c-25.34883 0-52.72634-12.828981-68.434113-31.589434-15.707774-18.741132-22.296151-43.916075-18.238792-71.061736l0.502339-1.487698c23.320151-112.524075 80.586868-211.71683 165.231095-287.724679 85.668226-76.510189 191.082264-121.913962 304.630339-129.79683h2.531019c92.256604 0 171.317132 14.297358 242.282264 43.433057 18.741132 7.399849 28.401509 12.326642 37.501585 16.770415l9.138717 4.443773 1.507019 0.985359c135.341887 75.52483 226.574491 200.375547 256.985359 350.903547 7.090717 26.662642-1.004679 55.276679-22.296151 76.007849l-2.02868 1.970717c-22.798491 17.775094-45.113962 27.14566-66.907773 27.14566zM80.799396 910.915623c-0.50234 5.409811-1.004679 16.770415 5.081359 24.170264l0.502339 0.502339c3.555019 4.443774 13.679094 9.370566 20.789132 9.370566h842.384906c6.607698 0 16.229434-4.443774 26.37283-12.828981 5.062038-5.429132 7.090717-12.345962 5.583698-18.258113l-0.52166-2.473056C954.638491 777.660377 874.070943 667.107019 753.91517 599.484377c-3.535698-1.468377-6.569057-3.439094-9.621736-4.926792-8.617057-4.443774-16.229434-8.385208-31.937208-14.297359h-0.502339c-62.850415-26.179623-134.317887-39.008604-217.435774-39.008603-99.347321 7.399849-191.603925 46.891472-267.128755 114.494792-74.50083 67.622642-125.198491 155.957132-146.489962 255.169208z" fill="#d4237a" p-id="3273"></path><path d="M531.069585 521.660377C387.497057 521.660377 270.490566 408.885132 270.490566 270.490566S387.497057 19.320755 531.069585 19.320755c69.999094 0 135.902189 26.10234 184.957585 73.380226 49.036075 47.277887 76.123774 110.321509 76.123773 178.272604 0 66.502038-27.087698 129.52634-76.645434 177.306566C665.445434 495.075019 600.044679 521.660377 531.069585 521.660377z m0-443.739773c-109.857811 0-199.274264 86.189887-199.274264 192.086943 0 105.877736 89.416453 192.048302 199.274264 192.048302 108.312151 0 199.254943-88.141283 199.254943-192.048302 0.52166-107.365434-87.368453-192.086943-199.254943-192.086943z" fill="#d4237a" p-id="3274"></path></svg>